<svg width="2563" height="1024" viewBox="0 0 2563 1024" fill="none" xmlns="http://www.w3.org/2000/svg">
<path fill-rule="evenodd" clip-rule="evenodd" d="M713.495 284.849L570.695 247.131C560.837 244.527 552.845 250.572 552.845 260.633V406.365C552.845 416.425 560.837 426.692 570.695 429.296L713.495 467.013C723.353 469.617 731.346 463.572 731.346 453.512V307.78C731.346 297.72 723.353 287.453 713.495 284.849ZM570.695 192.482C531.262 182.066 499.294 206.246 499.294 246.489V392.22C499.294 432.463 531.262 473.529 570.695 483.944L713.495 521.663C752.928 532.079 784.895 507.898 784.895 467.656V321.925C784.895 281.682 752.928 240.615 713.495 230.2L570.695 192.482Z" fill="black" fill-opacity="0.5"/>
<path fill-rule="evenodd" clip-rule="evenodd" d="M601.375 403.575L422.875 356.428C413.017 353.824 405.024 359.869 405.024 369.929V552.094C405.024 562.154 413.017 572.421 422.875 575.025L601.375 622.173C611.233 624.777 619.224 618.732 619.224 608.672V426.507C619.224 416.446 611.233 406.179 601.375 403.575ZM422.875 301.778C383.442 291.363 351.474 315.543 351.474 355.786V537.95C351.474 578.193 383.442 619.259 422.875 629.674L601.375 676.823C640.808 687.238 672.774 663.058 672.774 622.815V440.651C672.774 400.408 640.808 359.342 601.375 348.927L422.875 301.778Z" fill="black" fill-opacity="0.75"/>
<path fill-rule="evenodd" clip-rule="evenodd" d="M489.226 522.302L275.025 465.724C265.167 463.12 257.175 469.165 257.175 479.226V697.824C257.175 707.884 265.167 718.151 275.025 720.755L489.226 777.332C499.084 779.936 507.075 773.89 507.075 763.83V545.233C507.075 535.173 499.084 524.906 489.226 522.302ZM275.025 411.075C235.592 400.66 203.625 424.839 203.625 465.082V683.679C203.625 723.922 235.592 764.988 275.025 775.405L489.226 831.981C528.658 842.397 560.624 818.217 560.624 777.975V559.377C560.624 519.134 528.658 478.067 489.226 467.653L275.025 411.075Z" fill="black"/>
<path d="M1218.76 680.45C1211.86 680.45 1206.31 677.6 1202.11 671.9L1090.06 527.45L1124.71 492.35L1239.01 641.3C1242.61 646.1 1244.41 651.35 1244.41 657.05C1244.41 664.25 1241.71 669.95 1236.31 674.15C1230.91 678.35 1225.06 680.45 1218.76 680.45ZM1221.01 363.65C1227.01 363.65 1231.96 366.05 1235.86 370.85C1239.76 375.65 1241.71 380.6 1241.71 385.7C1241.71 391.1 1239.46 396.05 1234.96 400.55L1041.01 584.6L1038.31 531.5L1203.01 372.2C1208.41 366.5 1214.41 363.65 1221.01 363.65ZM1022.56 680C1015.66 680 1009.96 677.9 1005.46 673.7C1001.26 669.2 999.159 663.65 999.159 657.05V387.95C999.159 381.35 1001.41 375.95 1005.91 371.75C1010.41 367.25 1016.26 365 1023.46 365C1030.36 365 1035.91 367.25 1040.11 371.75C1044.31 375.95 1046.41 381.35 1046.41 387.95V657.05C1046.11 663.65 1043.86 669.2 1039.66 673.7C1035.46 677.9 1029.76 680 1022.56 680ZM1509.29 561.65C1509.29 585.65 1504.04 606.95 1493.54 625.55C1483.04 643.85 1468.79 658.25 1450.79 668.75C1432.79 679.25 1412.54 684.5 1390.04 684.5C1367.54 684.5 1347.29 679.25 1329.29 668.75C1311.29 658.25 1296.89 643.85 1286.09 625.55C1275.59 606.95 1270.34 585.65 1270.34 561.65C1270.34 537.35 1275.59 516.05 1286.09 497.75C1296.89 479.15 1311.29 464.6 1329.29 454.1C1347.29 443.3 1367.54 437.9 1390.04 437.9C1412.54 437.9 1432.79 443.3 1450.79 454.1C1468.79 464.6 1483.04 479.15 1493.54 497.75C1504.04 516.05 1509.29 537.35 1509.29 561.65ZM1464.29 561.65C1464.29 545.15 1460.99 530.9 1454.39 518.9C1447.79 506.6 1438.79 497 1427.39 490.1C1416.29 482.9 1403.84 479.3 1390.04 479.3C1376.24 479.3 1363.64 482.9 1352.24 490.1C1340.84 497 1331.84 506.6 1325.24 518.9C1318.64 530.9 1315.34 545.15 1315.34 561.65C1315.34 577.55 1318.64 591.65 1325.24 603.95C1331.84 616.25 1340.84 625.85 1352.24 632.75C1363.64 639.65 1376.24 643.1 1390.04 643.1C1403.84 643.1 1416.29 639.65 1427.39 632.75C1438.79 625.85 1447.79 616.25 1454.39 603.95C1460.99 591.65 1464.29 577.55 1464.29 561.65ZM1754.17 347C1760.77 347 1766.17 349.1 1770.37 353.3C1774.57 357.5 1776.67 363.05 1776.67 369.95V657.05C1776.67 663.65 1774.57 669.2 1770.37 673.7C1766.17 677.9 1760.77 680 1754.17 680C1747.87 680 1742.47 677.9 1737.97 673.7C1733.77 669.2 1731.67 663.65 1731.67 657.05V624.65L1741.12 625.1C1741.12 630.5 1738.87 636.65 1734.37 643.55C1730.17 650.15 1724.32 656.6 1716.82 662.9C1709.32 669.2 1700.47 674.45 1690.27 678.65C1680.07 682.55 1669.12 684.5 1657.42 684.5C1636.72 684.5 1618.12 679.25 1601.62 668.75C1585.12 657.95 1572.07 643.4 1562.47 625.1C1552.87 606.5 1548.07 585.2 1548.07 561.2C1548.07 537.2 1552.87 516.05 1562.47 497.75C1572.07 479.15 1584.97 464.6 1601.17 454.1C1617.67 443.3 1635.97 437.9 1656.07 437.9C1668.67 437.9 1680.37 440 1691.17 444.2C1702.27 448.4 1711.87 453.8 1719.97 460.4C1728.07 467 1734.37 474.05 1738.87 481.55C1743.37 488.75 1745.62 495.65 1745.62 502.25L1731.67 503.6V369.95C1731.67 363.35 1733.77 357.95 1737.97 353.75C1742.47 349.25 1747.87 347 1754.17 347ZM1662.37 643.1C1676.77 643.1 1689.22 639.5 1699.72 632.3C1710.52 625.1 1718.92 615.35 1724.92 603.05C1730.92 590.75 1733.92 576.8 1733.92 561.2C1733.92 545.6 1730.92 531.65 1724.92 519.35C1718.92 507.05 1710.52 497.3 1699.72 490.1C1688.92 482.9 1676.47 479.3 1662.37 479.3C1648.57 479.3 1636.27 482.9 1625.47 490.1C1614.97 497.3 1606.57 507.05 1600.27 519.35C1594.27 531.65 1591.27 545.6 1591.27 561.2C1591.27 576.8 1594.27 590.75 1600.27 603.05C1606.57 615.35 1614.97 625.1 1625.47 632.3C1636.27 639.5 1648.57 643.1 1662.37 643.1ZM1882.02 657.05C1882.02 663.65 1879.92 669.2 1875.72 673.7C1871.52 677.9 1866.12 680 1859.52 680C1853.22 680 1847.82 677.9 1843.32 673.7C1839.12 669.2 1837.02 663.65 1837.02 657.05V464.45C1837.02 457.85 1839.12 452.45 1843.32 448.25C1847.82 443.75 1853.22 441.5 1859.52 441.5C1866.12 441.5 1871.52 443.75 1875.72 448.25C1879.92 452.45 1882.02 457.85 1882.02 464.45V657.05ZM1859.07 411.8C1850.37 411.8 1844.07 410.3 1840.17 407.3C1836.27 404 1834.32 398.6 1834.32 391.1V383.9C1834.32 376.4 1836.42 371.15 1840.62 368.15C1844.82 365.15 1851.12 363.65 1859.52 363.65C1868.52 363.65 1874.97 365.3 1878.87 368.6C1882.77 371.6 1884.72 376.7 1884.72 383.9V391.1C1884.72 398.9 1882.62 404.3 1878.42 407.3C1874.52 410.3 1868.07 411.8 1859.07 411.8ZM1928.6 643.1C1925.9 638.9 1924.7 634.1 1925 628.7C1925.3 623 1928.45 618.2 1934.45 614.3C1938.65 611.6 1943 610.55 1947.5 611.15C1952.3 611.45 1956.8 613.7 1961 617.9C1969.4 627.2 1978.7 634.55 1988.9 639.95C1999.4 645.35 2012 648.05 2026.7 648.05C2032.7 647.75 2038.85 646.85 2045.15 645.35C2051.45 643.55 2056.85 640.55 2061.35 636.35C2065.85 631.85 2068.1 625.4 2068.1 617C2068.1 609.5 2065.7 603.5 2060.9 599C2056.1 594.5 2049.8 590.9 2042 588.2C2034.2 585.2 2025.8 582.5 2016.8 580.1C2007.2 577.4 1997.45 574.4 1987.55 571.1C1977.95 567.8 1969.25 563.6 1961.45 558.5C1953.65 553.1 1947.2 546.2 1942.1 537.8C1937.3 529.4 1934.9 519.05 1934.9 506.75C1934.9 492.65 1938.8 480.5 1946.6 470.3C1954.7 460.1 1965.05 452.15 1977.65 446.45C1990.55 440.75 2004.5 437.9 2019.5 437.9C2028.2 437.9 2037.35 439.1 2046.95 441.5C2056.55 443.6 2065.85 447.05 2074.85 451.85C2083.85 456.65 2091.65 462.95 2098.25 470.75C2101.25 474.65 2102.9 479.3 2103.2 484.7C2103.8 490.1 2101.4 494.9 2096 499.1C2092.4 502.1 2088.05 503.45 2082.95 503.15C2077.85 502.85 2073.65 501.2 2070.35 498.2C2064.65 491 2057.3 485.45 2048.3 481.55C2039.3 477.35 2029.1 475.25 2017.7 475.25C2012 475.25 2006 476.15 1999.7 477.95C1993.7 479.45 1988.6 482.3 1984.4 486.5C1980.2 490.7 1978.1 496.85 1978.1 504.95C1978.1 512.45 1980.5 518.45 1985.3 522.95C1990.4 527.45 1997 531.2 2005.1 534.2C2013.2 537.2 2022.05 539.9 2031.65 542.3C2040.95 544.7 2050.1 547.55 2059.1 550.85C2068.4 554.15 2076.65 558.5 2083.85 563.9C2091.35 569 2097.35 575.75 2101.85 584.15C2106.65 592.25 2109.05 602.6 2109.05 615.2C2109.05 629.9 2104.7 642.5 2096 653C2087.6 663.2 2076.8 671 2063.6 676.4C2050.7 681.8 2037.05 684.5 2022.65 684.5C2005.55 684.5 1988.45 681.5 1971.35 675.5C1954.55 669.2 1940.3 658.4 1928.6 643.1ZM2262.29 437.9C2278.49 437.9 2292.89 439.7 2305.49 443.3C2318.09 446.6 2327.84 451.4 2334.74 457.7C2341.94 463.7 2345.54 470.75 2345.54 478.85C2345.54 483.95 2344.04 488.75 2341.04 493.25C2338.04 497.45 2333.54 499.55 2327.54 499.55C2323.34 499.55 2319.74 498.8 2316.74 497.3C2314.04 495.8 2311.49 494 2309.09 491.9C2306.69 489.8 2303.69 487.7 2300.09 485.6C2296.79 483.8 2291.84 482.3 2285.24 481.1C2278.94 479.9 2273.24 479.3 2268.14 479.3C2252.24 479.3 2238.44 482.9 2226.74 490.1C2215.34 497.3 2206.34 507.05 2199.74 519.35C2193.44 531.65 2190.29 545.6 2190.29 561.2C2190.29 576.8 2193.44 590.75 2199.74 603.05C2206.34 615.35 2215.19 625.1 2226.29 632.3C2237.69 639.5 2250.89 643.1 2265.89 643.1C2274.89 643.1 2282.24 642.5 2287.94 641.3C2293.64 639.8 2298.59 638 2302.79 635.9C2307.29 633.2 2311.04 630.5 2314.04 627.8C2317.34 624.8 2321.84 623.3 2327.54 623.3C2334.14 623.3 2339.09 625.4 2342.39 629.6C2345.99 633.5 2347.79 638.45 2347.79 644.45C2347.79 651.05 2343.74 657.5 2335.64 663.8C2327.84 669.8 2317.34 674.75 2304.14 678.65C2290.94 682.55 2276.39 684.5 2260.49 684.5C2237.09 684.5 2216.69 679.1 2199.29 668.3C2182.19 657.5 2168.84 642.8 2159.24 624.2C2149.94 605.6 2145.29 584.6 2145.29 561.2C2145.29 537.5 2150.24 516.5 2160.14 498.2C2170.04 479.6 2183.84 464.9 2201.54 454.1C2219.24 443.3 2239.49 437.9 2262.29 437.9Z" fill="black" fill-opacity="0.8"/>
</svg>
