<svg width="256" height="256" viewBox="0 0 256 256" fill="none" xmlns="http://www.w3.org/2000/svg">
<g clip-path="url(#clip0_5_2)">
<rect width="256" height="256" rx="32" fill="white"/>
<path fill-rule="evenodd" clip-rule="evenodd" d="M197.543 56.0314L152.299 44.0811C149.176 43.2561 146.644 45.1714 146.644 48.3589V94.5315C146.644 97.7189 149.176 100.972 152.299 101.797L197.543 113.747C200.666 114.572 203.199 112.657 203.199 109.469V63.2968C203.199 60.1092 200.666 56.8564 197.543 56.0314ZM152.299 26.7665C139.806 23.4665 129.677 31.1274 129.677 43.8776V90.0498C129.677 102.8 139.806 115.811 152.299 119.111L197.543 131.061C210.037 134.362 220.165 126.7 220.165 113.95V67.7783C220.165 55.0279 210.037 42.0168 197.543 38.7168L152.299 26.7665Z" fill="black" fill-opacity="0.5"/>
<path fill-rule="evenodd" clip-rule="evenodd" d="M162.02 93.6475L105.465 78.7099C102.342 77.8848 99.8095 79.8001 99.8095 82.9876V140.703C99.8095 143.89 102.342 147.143 105.465 147.968L162.02 162.906C165.143 163.731 167.675 161.816 167.675 158.629V100.913C167.675 97.7254 165.143 94.4725 162.02 93.6475ZM105.465 61.3952C92.9717 58.0952 82.8434 65.7562 82.8434 78.5064V136.222C82.8434 148.972 92.9717 161.983 105.465 165.283L162.02 180.221C174.513 183.521 184.641 175.86 184.641 163.11V105.394C184.641 92.6443 174.513 79.633 162.02 76.3332L105.465 61.3952Z" fill="black" fill-opacity="0.75"/>
<path fill-rule="evenodd" clip-rule="evenodd" d="M126.487 131.264L58.6218 113.338C55.4984 112.513 52.9663 114.429 52.9663 117.616V186.875C52.9663 190.062 55.4984 193.315 58.6218 194.14L126.487 212.065C129.611 212.891 132.143 210.975 132.143 207.788V138.529C132.143 135.342 129.611 132.089 126.487 131.264ZM58.6218 96.0237C46.1281 92.7239 36 100.385 36 113.135V182.393C36 195.143 46.1281 208.155 58.6218 211.455L126.487 229.38C138.981 232.68 149.109 225.019 149.109 212.269V143.011C149.109 130.26 138.981 117.249 126.487 113.949L58.6218 96.0237Z" fill="black"/>
</g>
<defs>
<clipPath id="clip0_5_2">
<rect width="256" height="256" rx="32" fill="white"/>
</clipPath>
</defs>
</svg>
